<mxfile host="app.diagrams.net" agent="Mozilla/5.0 (Windows NT 10.0; Win64; x64) AppleWebKit/537.36 (KHTML, like Gecko) Chrome/129.0.0.0 Safari/537.36" version="24.7.17">
  <diagram name="Copy of Page-1" id="fp6XKwJuCwFejvSkUjyD">
    <mxGraphModel grid="1" page="1" gridSize="10" guides="1" tooltips="1" connect="1" arrows="1" fold="1" pageScale="1" pageWidth="827" pageHeight="1169" math="0" shadow="0">
      <root>
        <mxCell id="0" />
        <mxCell id="1" parent="0" />
        <mxCell id="NufTpKBaQhYf6jUjpxxS-11" value="&lt;font size=&quot;3&quot; face=&quot;Comic Sans MS&quot;&gt;START&lt;/font&gt;" style="ellipse;whiteSpace=wrap;html=1;" vertex="1" parent="1">
          <mxGeometry x="354" y="40" width="120" height="80" as="geometry" />
        </mxCell>
        <mxCell id="NufTpKBaQhYf6jUjpxxS-12" value="" style="endArrow=classic;html=1;rounded=0;" edge="1" parent="1">
          <mxGeometry width="50" height="50" relative="1" as="geometry">
            <mxPoint x="412" y="120" as="sourcePoint" />
            <mxPoint x="412" y="160" as="targetPoint" />
          </mxGeometry>
        </mxCell>
        <mxCell id="NufTpKBaQhYf6jUjpxxS-13" value="&lt;font size=&quot;3&quot; face=&quot;Comic Sans MS&quot;&gt;Pilih nilai&amp;nbsp;&lt;/font&gt;&lt;span style=&quot;font-family: &amp;quot;Comic Sans MS&amp;quot;; font-size: medium; background-color: initial;&quot;&gt;Analog terhadap Potensio&lt;/span&gt;&lt;div&gt;&lt;font size=&quot;3&quot; face=&quot;Comic Sans MS&quot;&gt;(0 - 10240)&lt;/font&gt;&lt;/div&gt;" style="shape=parallelogram;perimeter=parallelogramPerimeter;whiteSpace=wrap;html=1;fixedSize=1;" vertex="1" parent="1">
          <mxGeometry x="322.5" y="160" width="183" height="80" as="geometry" />
        </mxCell>
        <mxCell id="NufTpKBaQhYf6jUjpxxS-14" value="" style="endArrow=classic;html=1;rounded=0;" edge="1" parent="1">
          <mxGeometry width="50" height="50" relative="1" as="geometry">
            <mxPoint x="411.02" y="240" as="sourcePoint" />
            <mxPoint x="411.02" y="280" as="targetPoint" />
          </mxGeometry>
        </mxCell>
        <mxCell id="NufTpKBaQhYf6jUjpxxS-15" value="&lt;font size=&quot;3&quot; face=&quot;Comic Sans MS&quot;&gt;Mengubah nilai Analog menjadi nilai PWM (tegangan) (0-255)&lt;/font&gt;" style="rounded=0;whiteSpace=wrap;html=1;" vertex="1" parent="1">
          <mxGeometry x="324" y="279.5" width="180" height="80" as="geometry" />
        </mxCell>
        <mxCell id="NufTpKBaQhYf6jUjpxxS-17" value="" style="endArrow=classic;html=1;rounded=0;" edge="1" parent="1">
          <mxGeometry width="50" height="50" relative="1" as="geometry">
            <mxPoint x="411.02" y="359.5" as="sourcePoint" />
            <mxPoint x="411.02" y="399.5" as="targetPoint" />
          </mxGeometry>
        </mxCell>
        <mxCell id="NufTpKBaQhYf6jUjpxxS-18" value="&lt;font size=&quot;3&quot; face=&quot;Comic Sans MS&quot;&gt;Menampilkan nilai Voltage Potensio&lt;/font&gt;" style="shape=parallelogram;perimeter=parallelogramPerimeter;whiteSpace=wrap;html=1;fixedSize=1;" vertex="1" parent="1">
          <mxGeometry x="310" y="400" width="174" height="80" as="geometry" />
        </mxCell>
        <mxCell id="NufTpKBaQhYf6jUjpxxS-21" value="" style="endArrow=none;html=1;rounded=0;exitX=1;exitY=0.5;exitDx=0;exitDy=0;" edge="1" parent="1" source="NufTpKBaQhYf6jUjpxxS-18">
          <mxGeometry width="50" height="50" relative="1" as="geometry">
            <mxPoint x="493" y="510" as="sourcePoint" />
            <mxPoint x="560" y="440" as="targetPoint" />
          </mxGeometry>
        </mxCell>
        <mxCell id="NufTpKBaQhYf6jUjpxxS-22" value="" style="endArrow=none;html=1;rounded=0;" edge="1" parent="1">
          <mxGeometry width="50" height="50" relative="1" as="geometry">
            <mxPoint x="560" y="440" as="sourcePoint" />
            <mxPoint x="560" y="200" as="targetPoint" />
          </mxGeometry>
        </mxCell>
        <mxCell id="NufTpKBaQhYf6jUjpxxS-23" value="" style="endArrow=classic;html=1;rounded=0;entryX=1;entryY=0.5;entryDx=0;entryDy=0;" edge="1" parent="1" target="NufTpKBaQhYf6jUjpxxS-13">
          <mxGeometry width="50" height="50" relative="1" as="geometry">
            <mxPoint x="560" y="200" as="sourcePoint" />
            <mxPoint x="493" y="201.16000000000005" as="targetPoint" />
          </mxGeometry>
        </mxCell>
      </root>
    </mxGraphModel>
  </diagram>
</mxfile>
